<?xml version="1.0" standalone="no"?>
<!DOCTYPE svg PUBLIC "-//W3C//DTD SVG 20010904//EN"
 "http://www.w3.org/TR/2001/REC-SVG-20010904/DTD/svg10.dtd">
<svg version="1.0" xmlns="http://www.w3.org/2000/svg"
 width="512.000000pt" height="512.000000pt" viewBox="0 0 512.000000 512.000000"
 preserveAspectRatio="xMidYMid meet">
<metadata>
Created by potrace 1.11, written by Peter Selinger 2001-2013
</metadata>
<g transform="translate(0.000000,512.000000) scale(0.100000,-0.100000)"
fill="#000000" stroke="none">
<path d="M532 5109 c-47 -14 -109 -80 -123 -131 -8 -29 -9 -86 -5 -176 34
-733 354 -1302 1005 -1786 173 -128 404 -274 668 -422 29 -16 53 -31 53 -34 0
-3 -55 -36 -123 -74 -717 -406 -1132 -785 -1369 -1253 -151 -296 -230 -617
-232 -948 -1 -141 0 -152 23 -188 13 -21 42 -50 64 -65 34 -23 52 -27 107 -27
55 0 73 4 107 27 70 46 85 82 94 227 4 69 8 141 9 158 l0 33 1468 2 1468 3 41
27 c62 41 88 90 88 168 0 78 -26 127 -88 168 l-41 27 -1418 3 -1419 2 6 23
c14 49 136 287 182 352 l48 70 916 5 915 5 41 27 c63 41 88 90 88 169 0 54 -5
72 -27 106 -15 22 -44 51 -65 64 l-38 24 -715 5 -715 5 95 71 c225 169 447
302 1035 619 492 265 634 348 842 486 310 206 556 423 735 647 296 371 459
832 462 1308 1 147 0 151 -26 191 -41 62 -90 88 -168 88 -78 0 -127 -26 -167
-87 -23 -35 -27 -53 -34 -171 -4 -73 -8 -147 -8 -164 l-1 -33 -1468 -2 -1468
-3 -41 -27 c-63 -41 -88 -90 -88 -169 0 -54 5 -72 27 -106 15 -22 44 -51 65
-64 l38 -24 1417 -3 1418 -2 -20 -50 c-35 -89 -101 -213 -163 -307 l-61 -93
-896 -2 -896 -3 -41 -27 c-63 -41 -88 -90 -88 -169 0 -54 5 -72 27 -106 15
-22 44 -51 65 -64 l38 -24 694 -5 693 -5 -91 -68 c-108 -81 -350 -236 -511
-329 -157 -90 -391 -218 -400 -218 -11 0 -382 204 -505 278 -653 391 -990 751
-1158 1238 -55 159 -82 310 -96 546 -7 124 -11 142 -34 177 -14 21 -42 48 -61
60 -41 26 -125 35 -174 20z"/>
<path d="M3276 2305 c-109 -39 -164 -167 -117 -271 20 -44 51 -70 186 -161
538 -360 840 -774 939 -1288 14 -73 29 -217 39 -387 5 -80 31 -127 90 -166 34
-23 52 -27 107 -27 55 0 73 4 107 27 22 15 51 44 64 65 22 36 24 47 23 178 -2
151 -15 275 -45 425 -124 606 -481 1090 -1124 1520 -151 102 -189 114 -269 85z"/>
</g>
</svg>
